<?xml version="1.0" encoding="utf-8" standalone="no"?>
<!DOCTYPE svg PUBLIC "-//W3C//DTD SVG 1.1//EN"
  "http://www.w3.org/Graphics/SVG/1.1/DTD/svg11.dtd">
<svg xmlns:xlink="http://www.w3.org/1999/xlink" width="293.4pt" height="177.48pt" viewBox="0 0 293.4 177.48" xmlns="http://www.w3.org/2000/svg" version="1.1">
 <metadata>
  <rdf:RDF xmlns:dc="http://purl.org/dc/elements/1.1/" xmlns:cc="http://creativecommons.org/ns#" xmlns:rdf="http://www.w3.org/1999/02/22-rdf-syntax-ns#">
   <cc:Work>
    <dc:type rdf:resource="http://purl.org/dc/dcmitype/StillImage"/>
    <dc:date>2022-03-13T09:39:27.212760</dc:date>
    <dc:format>image/svg+xml</dc:format>
    <dc:creator>
     <cc:Agent>
      <dc:title>Matplotlib v3.5.1, https://matplotlib.org/</dc:title>
     </cc:Agent>
    </dc:creator>
   </cc:Work>
  </rdf:RDF>
 </metadata>
 <defs>
  <style type="text/css">*{stroke-linejoin: round; stroke-linecap: butt}</style>
 </defs>
 <g id="figure_1">
  <g id="axes_1">
   <g id="legend_1">
    <g id="patch_1">
     <path d="M 231.603125 23.690625 
L 251.603125 23.690625 
L 251.603125 16.690625 
L 231.603125 16.690625 
z
" style="fill: #181c43; stroke: #181c43; stroke-linejoin: miter"/>
    </g>
    <g id="text_1">
     <!-- &lt;3 -->
     <g transform="translate(259.603125 23.690625)scale(0.1 -0.1)">
      <defs>
       <path id="IPAexGothic-3c" d="M 897 2028 
L 3928 609 
L 3769 263 
L 409 1881 
L 409 2175 
L 3769 3794 
L 3928 3450 
L 897 2028 
z
" transform="scale(0.015625)"/>
       <path id="IPAexGothic-33" d="M 2381 2419 
Q 3506 2216 3506 1278 
Q 3506 716 3128 356 
Q 2709 -31 1944 -31 
Q 797 -31 288 881 
L 756 1131 
Q 1109 441 1938 441 
Q 2425 441 2694 691 
Q 2950 928 2950 1291 
Q 2950 1719 2566 1978 
Q 2216 2213 1644 2213 
L 1363 2213 
L 1363 2669 
L 1656 2669 
Q 2231 2669 2534 2888 
Q 2859 3119 2859 3509 
Q 2859 3934 2494 4138 
Q 2259 4278 1931 4278 
Q 1238 4278 903 3578 
L 434 3803 
Q 897 4725 1938 4725 
Q 2597 4725 3006 4394 
Q 3416 4069 3416 3534 
Q 3416 3028 3019 2706 
Q 2763 2500 2381 2444 
L 2381 2419 
z
" transform="scale(0.015625)"/>
      </defs>
      <use xlink:href="#IPAexGothic-3c"/>
      <use xlink:href="#IPAexGothic-33" x="67.822266"/>
     </g>
    </g>
    <g id="patch_2">
     <path d="M 231.603125 38.08125 
L 251.603125 38.08125 
L 251.603125 31.08125 
L 231.603125 31.08125 
z
" style="fill: #75aabe; stroke: #75aabe; stroke-linejoin: miter"/>
    </g>
    <g id="text_2">
     <!-- 3~5 -->
     <g transform="translate(259.603125 38.08125)scale(0.1 -0.1)">
      <defs>
       <path id="IPAexGothic-7e" d="M 2700 4353 
Q 2481 3853 2041 3853 
Q 1800 3853 1534 4019 
Q 1300 4166 1147 4166 
Q 947 4166 831 3884 
L 544 4059 
Q 725 4538 1159 4538 
Q 1403 4538 1675 4359 
Q 1891 4219 2066 4219 
Q 2284 4219 2438 4525 
L 2700 4353 
z
" transform="scale(0.015625)"/>
       <path id="IPAexGothic-35" d="M 1178 2603 
Q 1634 2963 2172 2963 
Q 2816 2963 3241 2528 
Q 3638 2113 3638 1497 
Q 3638 938 3297 513 
Q 2869 -31 2031 -31 
Q 959 -31 469 784 
L 938 1028 
Q 1309 434 2013 434 
Q 2466 434 2769 716 
Q 3081 1013 3081 1503 
Q 3081 1966 2806 2241 
Q 2519 2528 2056 2528 
Q 1406 2528 1072 2028 
L 591 2091 
L 884 4634 
L 3406 4634 
L 3406 4153 
L 1341 4153 
L 1134 2603 
L 1178 2603 
z
" transform="scale(0.015625)"/>
      </defs>
      <use xlink:href="#IPAexGothic-33"/>
      <use xlink:href="#IPAexGothic-7e" x="62.988281"/>
      <use xlink:href="#IPAexGothic-35" x="112.988281"/>
     </g>
    </g>
    <g id="patch_3">
     <path d="M 231.603125 52.471875 
L 251.603125 52.471875 
L 251.603125 45.471875 
L 231.603125 45.471875 
z
" style="fill: #d08b73; stroke: #d08b73; stroke-linejoin: miter"/>
    </g>
    <g id="text_3">
     <!-- &gt;5 -->
     <g transform="translate(259.603125 52.471875)scale(0.1 -0.1)">
      <defs>
       <path id="IPAexGothic-3e" d="M 3444 2028 
L 409 3450 
L 569 3794 
L 3928 2175 
L 3928 1881 
L 569 263 
L 409 609 
L 3444 2028 
z
" transform="scale(0.015625)"/>
      </defs>
      <use xlink:href="#IPAexGothic-3e"/>
      <use xlink:href="#IPAexGothic-35" x="67.822266"/>
     </g>
    </g>
   </g>
  </g>
 </g>
</svg>
