<?xml version="1.0" encoding="utf-8" standalone="no"?>
<!DOCTYPE svg PUBLIC "-//W3C//DTD SVG 1.1//EN"
  "http://www.w3.org/Graphics/SVG/1.1/DTD/svg11.dtd">
<svg xmlns:xlink="http://www.w3.org/1999/xlink" width="352.5875pt" height="208.031675pt" viewBox="0 0 352.5875 208.031675" xmlns="http://www.w3.org/2000/svg" version="1.1">
 <metadata>
  <rdf:RDF xmlns:dc="http://purl.org/dc/elements/1.1/" xmlns:cc="http://creativecommons.org/ns#" xmlns:rdf="http://www.w3.org/1999/02/22-rdf-syntax-ns#">
   <cc:Work>
    <dc:type rdf:resource="http://purl.org/dc/dcmitype/StillImage"/>
    <dc:date>2022-03-13T09:39:25.139274</dc:date>
    <dc:format>image/svg+xml</dc:format>
    <dc:creator>
     <cc:Agent>
      <dc:title>Matplotlib v3.5.1, https://matplotlib.org/</dc:title>
     </cc:Agent>
    </dc:creator>
   </cc:Work>
  </rdf:RDF>
 </metadata>
 <defs>
  <style type="text/css">*{stroke-linejoin: round; stroke-linecap: butt}</style>
 </defs>
 <g id="figure_1">
  <g id="patch_1">
   <path d="M 0 208.031675 
L 352.5875 208.031675 
L 352.5875 0 
L 0 0 
L 0 208.031675 
z
" style="fill: none"/>
  </g>
  <g id="axes_1">
   <g id="patch_2">
    <path d="M 40.1875 184.44105 
L 345.3875 184.44105 
L 345.3875 29.91505 
L 40.1875 29.91505 
z
" style="fill: #ffffff"/>
   </g>
   <g id="matplotlib.axis_1">
    <g id="xtick_1">
     <g id="line2d_1">
      <defs>
       <path id="meb793a8142" d="M 0 0 
L 0 3.5 
" style="stroke: #000000; stroke-width: 0.8"/>
      </defs>
      <g>
       <use xlink:href="#meb793a8142" x="78.3375" y="184.44105" style="stroke: #000000; stroke-width: 0.8"/>
      </g>
     </g>
     <g id="text_1">
      <!-- never -->
      <g transform="translate(65.348438 198.931675)scale(0.1 -0.1)">
       <defs>
        <path id="IPAexGothic-6e" d="M 3328 63 
L 2778 63 
L 2778 2041 
Q 2778 2853 2106 2853 
Q 1428 2853 1113 2041 
L 1113 63 
L 563 63 
L 563 3250 
L 1075 3250 
L 1075 2675 
Q 1525 3316 2222 3316 
Q 3328 3316 3328 2072 
L 3328 63 
z
" transform="scale(0.015625)"/>
        <path id="IPAexGothic-65" d="M 863 1594 
Q 891 1041 1209 722 
Q 1534 397 1997 397 
Q 2606 397 2963 966 
L 3322 728 
Q 2869 -31 1931 -31 
Q 1222 -31 766 422 
Q 306 884 306 1641 
Q 306 2444 788 2925 
Q 1216 3353 1856 3353 
Q 2459 3353 2866 2956 
Q 3322 2494 3322 1722 
L 3322 1594 
L 863 1594 
z
M 2756 1997 
Q 2709 2431 2450 2681 
Q 2194 2938 1844 2938 
Q 1438 2938 1150 2591 
Q 953 2356 894 1997 
L 2756 1997 
z
" transform="scale(0.015625)"/>
        <path id="IPAexGothic-76" d="M 3103 3250 
L 1747 6 
L 1375 6 
L 25 3250 
L 628 3250 
L 1338 1388 
L 1522 844 
L 1569 703 
L 1588 703 
Q 1641 884 1822 1388 
L 2516 3250 
L 3103 3250 
z
" transform="scale(0.015625)"/>
        <path id="IPAexGothic-72" d="M 2309 3316 
L 2213 2769 
Q 2106 2791 2022 2791 
Q 1653 2791 1413 2444 
Q 1113 2006 1113 1675 
L 1113 63 
L 563 63 
L 563 3250 
L 1081 3250 
L 1056 2303 
L 1069 2303 
Q 1422 3341 2097 3341 
Q 2206 3341 2309 3316 
z
" transform="scale(0.015625)"/>
       </defs>
       <use xlink:href="#IPAexGothic-6e"/>
       <use xlink:href="#IPAexGothic-65" x="60.400391"/>
       <use xlink:href="#IPAexGothic-76" x="117.285156"/>
       <use xlink:href="#IPAexGothic-65" x="165.869141"/>
       <use xlink:href="#IPAexGothic-72" x="222.753906"/>
      </g>
     </g>
    </g>
    <g id="xtick_2">
     <g id="line2d_2">
      <g>
       <use xlink:href="#meb793a8142" x="154.6375" y="184.44105" style="stroke: #000000; stroke-width: 0.8"/>
      </g>
     </g>
     <g id="text_2">
      <!-- rare -->
      <g transform="translate(145.342187 198.931675)scale(0.1 -0.1)">
       <defs>
        <path id="IPAexGothic-61" d="M 3156 63 
L 2672 63 
Q 2559 303 2531 556 
L 2509 556 
Q 2147 -25 1428 -25 
Q 934 -25 622 288 
Q 347 563 347 959 
Q 347 1947 2050 1997 
L 2478 2009 
L 2478 2175 
Q 2478 2509 2288 2700 
Q 2088 2900 1775 2900 
Q 1238 2900 969 2378 
L 494 2597 
Q 938 3328 1788 3328 
Q 2375 3328 2691 3000 
Q 2984 2706 2984 2169 
L 2984 997 
Q 2984 400 3156 63 
z
M 2491 1625 
L 2141 1619 
Q 903 1591 903 953 
Q 903 728 1050 581 
Q 1231 403 1525 403 
Q 1934 403 2234 703 
Q 2491 969 2491 1344 
L 2491 1625 
z
" transform="scale(0.015625)"/>
       </defs>
       <use xlink:href="#IPAexGothic-72"/>
       <use xlink:href="#IPAexGothic-61" x="37.011719"/>
       <use xlink:href="#IPAexGothic-72" x="91.992188"/>
       <use xlink:href="#IPAexGothic-65" x="129.003906"/>
      </g>
     </g>
    </g>
    <g id="xtick_3">
     <g id="line2d_3">
      <g>
       <use xlink:href="#meb793a8142" x="230.9375" y="184.44105" style="stroke: #000000; stroke-width: 0.8"/>
      </g>
     </g>
     <g id="text_3">
      <!-- often -->
      <g transform="translate(218.790625 198.931675)scale(0.1 -0.1)">
       <defs>
        <path id="IPAexGothic-6f" d="M 1919 3341 
Q 2594 3341 3056 2888 
Q 3531 2413 3531 1638 
Q 3531 888 3066 422 
Q 2609 -31 1919 -31 
Q 1228 -31 781 416 
Q 313 881 313 1656 
Q 313 2413 788 2888 
Q 1241 3341 1919 3341 
z
M 1919 2919 
Q 1519 2919 1241 2631 
Q 888 2278 888 1650 
Q 888 1031 1234 684 
Q 1516 403 1919 403 
Q 2331 403 2609 691 
Q 2956 1038 2956 1672 
Q 2956 2269 2603 2631 
Q 2316 2919 1919 2919 
z
" transform="scale(0.015625)"/>
        <path id="IPAexGothic-66" d="M 2456 4622 
L 2228 4244 
Q 1991 4422 1741 4422 
Q 1184 4422 1184 3672 
L 1184 3250 
L 2053 3250 
L 2053 2859 
L 1184 2859 
L 1184 63 
L 641 63 
L 641 2859 
L 122 2859 
L 122 3250 
L 641 3250 
L 641 3659 
Q 641 4188 891 4484 
Q 1200 4844 1709 4844 
Q 2116 4844 2456 4622 
z
" transform="scale(0.015625)"/>
        <path id="IPAexGothic-74" d="M 2125 241 
Q 1769 -6 1397 -6 
Q 653 -6 653 831 
L 653 2859 
L 219 2859 
L 219 3250 
L 653 3250 
L 653 3966 
L 1178 4228 
L 1178 3250 
L 2063 3250 
L 2063 2859 
L 1178 2859 
L 1178 906 
Q 1178 416 1513 416 
Q 1738 416 1941 588 
L 2125 241 
z
" transform="scale(0.015625)"/>
       </defs>
       <use xlink:href="#IPAexGothic-6f"/>
       <use xlink:href="#IPAexGothic-66" x="60.400391"/>
       <use xlink:href="#IPAexGothic-74" x="91.015625"/>
       <use xlink:href="#IPAexGothic-65" x="125.634766"/>
       <use xlink:href="#IPAexGothic-6e" x="182.519531"/>
      </g>
     </g>
    </g>
    <g id="xtick_4">
     <g id="line2d_4">
      <g>
       <use xlink:href="#meb793a8142" x="307.2375" y="184.44105" style="stroke: #000000; stroke-width: 0.8"/>
      </g>
     </g>
     <g id="text_4">
      <!-- rule -->
      <g transform="translate(298.171875 198.931675)scale(0.1 -0.1)">
       <defs>
        <path id="IPAexGothic-75" d="M 3284 63 
L 2772 63 
L 2772 644 
Q 2300 0 1625 0 
Q 1072 0 763 375 
Q 519 678 519 1241 
L 519 3250 
L 1069 3250 
L 1069 1259 
Q 1069 466 1734 466 
Q 2406 466 2734 1291 
L 2734 3250 
L 3284 3250 
L 3284 63 
z
" transform="scale(0.015625)"/>
        <path id="IPAexGothic-6c" d="M 1131 63 
L 581 63 
L 581 4794 
L 1131 4794 
L 1131 63 
z
" transform="scale(0.015625)"/>
       </defs>
       <use xlink:href="#IPAexGothic-72"/>
       <use xlink:href="#IPAexGothic-75" x="37.011719"/>
       <use xlink:href="#IPAexGothic-6c" x="97.412109"/>
       <use xlink:href="#IPAexGothic-65" x="124.414062"/>
      </g>
     </g>
    </g>
   </g>
   <g id="matplotlib.axis_2">
    <g id="ytick_1">
     <g id="line2d_5">
      <path d="M 40.1875 184.44105 
L 345.3875 184.44105 
" clip-path="url(#p3b6271097b)" style="fill: none; stroke-dasharray: 0.74,0.32; stroke-dashoffset: 0; stroke: #000000; stroke-width: 0.2"/>
     </g>
     <g id="line2d_6">
      <defs>
       <path id="m5d7361c0e6" d="M 0 0 
L -3.5 0 
" style="stroke: #000000; stroke-width: 0.8"/>
      </defs>
      <g>
       <use xlink:href="#m5d7361c0e6" x="40.1875" y="184.44105" style="stroke: #000000; stroke-width: 0.8"/>
      </g>
     </g>
     <g id="text_5">
      <!-- 0 -->
      <g transform="translate(26.889063 188.186362)scale(0.1 -0.1)">
       <defs>
        <path id="IPAexGothic-30" d="M 2038 4725 
Q 2881 4725 3334 3944 
Q 3694 3325 3694 2344 
Q 3694 1372 3334 741 
Q 2888 -31 2016 -31 
Q 1147 -31 700 741 
Q 341 1372 341 2350 
Q 341 3713 1000 4334 
Q 1419 4725 2038 4725 
z
M 2016 4266 
Q 1516 4266 1228 3759 
Q 934 3247 934 2344 
Q 934 1456 1222 947 
Q 1513 447 2016 447 
Q 2619 447 2909 1153 
Q 3100 1622 3100 2375 
Q 3100 3256 2806 3759 
Q 2509 4266 2016 4266 
z
" transform="scale(0.015625)"/>
       </defs>
       <use xlink:href="#IPAexGothic-30"/>
      </g>
     </g>
    </g>
    <g id="ytick_2">
     <g id="line2d_7">
      <path d="M 40.1875 153.128791 
L 345.3875 153.128791 
" clip-path="url(#p3b6271097b)" style="fill: none; stroke-dasharray: 0.74,0.32; stroke-dashoffset: 0; stroke: #000000; stroke-width: 0.2"/>
     </g>
     <g id="line2d_8">
      <g>
       <use xlink:href="#m5d7361c0e6" x="40.1875" y="153.128791" style="stroke: #000000; stroke-width: 0.8"/>
      </g>
     </g>
     <g id="text_6">
      <!-- 10 -->
      <g transform="translate(20.590625 156.874103)scale(0.1 -0.1)">
       <defs>
        <path id="IPAexGothic-31" d="M 2463 63 
L 1900 63 
L 1900 4103 
Q 1372 3922 788 3797 
L 684 4231 
Q 1519 4441 2106 4731 
L 2463 4731 
L 2463 63 
z
" transform="scale(0.015625)"/>
       </defs>
       <use xlink:href="#IPAexGothic-31"/>
       <use xlink:href="#IPAexGothic-30" x="62.988281"/>
      </g>
     </g>
    </g>
    <g id="ytick_3">
     <g id="line2d_9">
      <path d="M 40.1875 121.816531 
L 345.3875 121.816531 
" clip-path="url(#p3b6271097b)" style="fill: none; stroke-dasharray: 0.74,0.32; stroke-dashoffset: 0; stroke: #000000; stroke-width: 0.2"/>
     </g>
     <g id="line2d_10">
      <g>
       <use xlink:href="#m5d7361c0e6" x="40.1875" y="121.816531" style="stroke: #000000; stroke-width: 0.8"/>
      </g>
     </g>
     <g id="text_7">
      <!-- 20 -->
      <g transform="translate(20.590625 125.561844)scale(0.1 -0.1)">
       <defs>
        <path id="IPAexGothic-32" d="M 3659 63 
L 447 63 
L 447 594 
Q 825 1475 1894 2203 
L 2072 2322 
Q 2619 2697 2791 2906 
Q 2988 3153 2988 3444 
Q 2988 3772 2756 4003 
Q 2500 4259 2084 4259 
Q 1250 4259 991 3328 
L 497 3506 
Q 853 4725 2116 4725 
Q 2806 4725 3216 4316 
Q 3575 3947 3575 3425 
Q 3575 3038 3344 2722 
Q 3131 2416 2366 1938 
L 2231 1856 
Q 1256 1253 978 569 
L 3659 569 
L 3659 63 
z
" transform="scale(0.015625)"/>
       </defs>
       <use xlink:href="#IPAexGothic-32"/>
       <use xlink:href="#IPAexGothic-30" x="62.988281"/>
      </g>
     </g>
    </g>
    <g id="ytick_4">
     <g id="line2d_11">
      <path d="M 40.1875 90.504272 
L 345.3875 90.504272 
" clip-path="url(#p3b6271097b)" style="fill: none; stroke-dasharray: 0.74,0.32; stroke-dashoffset: 0; stroke: #000000; stroke-width: 0.2"/>
     </g>
     <g id="line2d_12">
      <g>
       <use xlink:href="#m5d7361c0e6" x="40.1875" y="90.504272" style="stroke: #000000; stroke-width: 0.8"/>
      </g>
     </g>
     <g id="text_8">
      <!-- 30 -->
      <g transform="translate(20.590625 94.249584)scale(0.1 -0.1)">
       <defs>
        <path id="IPAexGothic-33" d="M 2381 2419 
Q 3506 2216 3506 1278 
Q 3506 716 3128 356 
Q 2709 -31 1944 -31 
Q 797 -31 288 881 
L 756 1131 
Q 1109 441 1938 441 
Q 2425 441 2694 691 
Q 2950 928 2950 1291 
Q 2950 1719 2566 1978 
Q 2216 2213 1644 2213 
L 1363 2213 
L 1363 2669 
L 1656 2669 
Q 2231 2669 2534 2888 
Q 2859 3119 2859 3509 
Q 2859 3934 2494 4138 
Q 2259 4278 1931 4278 
Q 1238 4278 903 3578 
L 434 3803 
Q 897 4725 1938 4725 
Q 2597 4725 3006 4394 
Q 3416 4069 3416 3534 
Q 3416 3028 3019 2706 
Q 2763 2500 2381 2444 
L 2381 2419 
z
" transform="scale(0.015625)"/>
       </defs>
       <use xlink:href="#IPAexGothic-33"/>
       <use xlink:href="#IPAexGothic-30" x="62.988281"/>
      </g>
     </g>
    </g>
    <g id="ytick_5">
     <g id="line2d_13">
      <path d="M 40.1875 59.192013 
L 345.3875 59.192013 
" clip-path="url(#p3b6271097b)" style="fill: none; stroke-dasharray: 0.74,0.32; stroke-dashoffset: 0; stroke: #000000; stroke-width: 0.2"/>
     </g>
     <g id="line2d_14">
      <g>
       <use xlink:href="#m5d7361c0e6" x="40.1875" y="59.192013" style="stroke: #000000; stroke-width: 0.8"/>
      </g>
     </g>
     <g id="text_9">
      <!-- 40 -->
      <g transform="translate(20.590625 62.937325)scale(0.1 -0.1)">
       <defs>
        <path id="IPAexGothic-34" d="M 3813 1159 
L 3059 1159 
L 3059 63 
L 2547 63 
L 2547 1159 
L 197 1159 
L 197 1672 
L 2456 4678 
L 3059 4678 
L 3059 1634 
L 3813 1634 
L 3813 1159 
z
M 2578 4109 
L 2559 4109 
Q 2278 3656 2003 3284 
L 759 1634 
L 2547 1634 
L 2547 3144 
Q 2547 3481 2578 4109 
z
" transform="scale(0.015625)"/>
       </defs>
       <use xlink:href="#IPAexGothic-34"/>
       <use xlink:href="#IPAexGothic-30" x="62.988281"/>
      </g>
     </g>
    </g>
    <g id="text_10">
     <!-- Count -->
     <g transform="translate(14.690625 121.596019)rotate(-90)scale(0.1 -0.1)">
      <defs>
       <path id="IPAexGothic-43" d="M 4353 1088 
Q 4181 694 3859 428 
Q 3313 -31 2559 -31 
Q 1588 -31 959 653 
Q 378 1294 378 2331 
Q 378 3406 1013 4078 
Q 1619 4725 2534 4725 
Q 3813 4725 4322 3628 
L 3809 3391 
Q 3425 4238 2541 4238 
Q 1891 4238 1453 3744 
Q 994 3216 994 2322 
Q 994 1550 1384 1056 
Q 1841 472 2563 472 
Q 3456 472 3878 1319 
L 4353 1088 
z
" transform="scale(0.015625)"/>
      </defs>
      <use xlink:href="#IPAexGothic-43"/>
      <use xlink:href="#IPAexGothic-6f" x="72.509766"/>
      <use xlink:href="#IPAexGothic-75" x="132.910156"/>
      <use xlink:href="#IPAexGothic-6e" x="193.310547"/>
      <use xlink:href="#IPAexGothic-74" x="253.710938"/>
     </g>
    </g>
   </g>
   <g id="patch_3">
    <path d="M 59.2625 184.44105 
L 68.8 184.44105 
L 68.8 37.273431 
L 59.2625 37.273431 
z
" clip-path="url(#p3b6271097b)" style="fill: #181c43"/>
   </g>
   <g id="patch_4">
    <path d="M 135.5625 184.44105 
L 145.1 184.44105 
L 145.1 143.735113 
L 135.5625 143.735113 
z
" clip-path="url(#p3b6271097b)" style="fill: #181c43"/>
   </g>
   <g id="patch_5">
    <path d="M 211.8625 184.44105 
L 221.4 184.44105 
L 221.4 149.997565 
L 211.8625 149.997565 
z
" clip-path="url(#p3b6271097b)" style="fill: #181c43"/>
   </g>
   <g id="patch_6">
    <path d="M 288.1625 184.44105 
L 297.7 184.44105 
L 297.7 121.816531 
L 288.1625 121.816531 
z
" clip-path="url(#p3b6271097b)" style="fill: #181c43"/>
   </g>
   <g id="patch_7">
    <path d="M 68.8 184.44105 
L 78.3375 184.44105 
L 78.3375 143.735113 
L 68.8 143.735113 
z
" clip-path="url(#p3b6271097b)" style="fill: #3888ba"/>
   </g>
   <g id="patch_8">
    <path d="M 145.1 184.44105 
L 154.6375 184.44105 
L 154.6375 175.047372 
L 145.1 175.047372 
z
" clip-path="url(#p3b6271097b)" style="fill: #3888ba"/>
   </g>
   <g id="patch_9">
    <path d="M 221.4 184.44105 
L 230.9375 184.44105 
L 230.9375 175.047372 
L 221.4 175.047372 
z
" clip-path="url(#p3b6271097b)" style="fill: #3888ba"/>
   </g>
   <g id="patch_10">
    <path d="M 297.7 184.44105 
L 307.2375 184.44105 
L 307.2375 184.44105 
L 297.7 184.44105 
z
" clip-path="url(#p3b6271097b)" style="fill: #3888ba"/>
   </g>
   <g id="patch_11">
    <path d="M 78.3375 184.44105 
L 87.875 184.44105 
L 87.875 159.391243 
L 78.3375 159.391243 
z
" clip-path="url(#p3b6271097b)" style="fill: #f1eceb"/>
   </g>
   <g id="patch_12">
    <path d="M 154.6375 184.44105 
L 164.175 184.44105 
L 164.175 159.391243 
L 154.6375 159.391243 
z
" clip-path="url(#p3b6271097b)" style="fill: #f1eceb"/>
   </g>
   <g id="patch_13">
    <path d="M 230.9375 184.44105 
L 240.475 184.44105 
L 240.475 178.178598 
L 230.9375 178.178598 
z
" clip-path="url(#p3b6271097b)" style="fill: #f1eceb"/>
   </g>
   <g id="patch_14">
    <path d="M 307.2375 184.44105 
L 316.775 184.44105 
L 316.775 184.44105 
L 307.2375 184.44105 
z
" clip-path="url(#p3b6271097b)" style="fill: #f1eceb"/>
   </g>
   <g id="patch_15">
    <path d="M 87.875 184.44105 
L 97.4125 184.44105 
L 97.4125 168.78492 
L 87.875 168.78492 
z
" clip-path="url(#p3b6271097b)" style="fill: #808080"/>
   </g>
   <g id="patch_16">
    <path d="M 164.175 184.44105 
L 173.7125 184.44105 
L 173.7125 178.178598 
L 164.175 178.178598 
z
" clip-path="url(#p3b6271097b)" style="fill: #808080"/>
   </g>
   <g id="patch_17">
    <path d="M 240.475 184.44105 
L 250.0125 184.44105 
L 250.0125 184.44105 
L 240.475 184.44105 
z
" clip-path="url(#p3b6271097b)" style="fill: #808080"/>
   </g>
   <g id="patch_18">
    <path d="M 316.775 184.44105 
L 326.3125 184.44105 
L 326.3125 181.309824 
L 316.775 181.309824 
z
" clip-path="url(#p3b6271097b)" style="fill: #808080"/>
   </g>
   <g id="patch_19">
    <path d="M 40.1875 184.44105 
L 40.1875 29.91505 
" style="fill: none; stroke: #000000; stroke-width: 0.8; stroke-linejoin: miter; stroke-linecap: square"/>
   </g>
   <g id="patch_20">
    <path d="M 345.3875 184.44105 
L 345.3875 29.91505 
" style="fill: none; stroke: #000000; stroke-width: 0.8; stroke-linejoin: miter; stroke-linecap: square"/>
   </g>
   <g id="patch_21">
    <path d="M 40.1875 184.44105 
L 345.3875 184.44105 
" style="fill: none; stroke: #000000; stroke-width: 0.8; stroke-linejoin: miter; stroke-linecap: square"/>
   </g>
   <g id="patch_22">
    <path d="M 40.1875 29.91505 
L 345.3875 29.91505 
" style="fill: none; stroke: #000000; stroke-width: 0.8; stroke-linejoin: miter; stroke-linecap: square"/>
   </g>
   <g id="text_11">
    <!-- vegsout_undergr -->
    <g transform="translate(145.851562 16.18875)scale(0.12 -0.12)">
     <defs>
      <path id="IPAexGothic-67" d="M 1331 1150 
Q 1006 1122 1006 900 
Q 1006 613 1763 575 
L 2131 556 
Q 3303 497 3303 -294 
Q 3303 -700 2925 -959 
Q 2519 -1253 1794 -1253 
Q 1138 -1253 738 -1028 
Q 353 -809 353 -428 
Q 353 84 1075 247 
L 1075 269 
Q 506 413 506 778 
Q 506 1116 994 1297 
Q 456 1575 456 2181 
Q 456 2650 769 2963 
Q 1128 3322 1738 3322 
Q 2125 3322 2422 3153 
Q 2650 3453 3259 3463 
L 3259 3013 
Q 2838 3003 2703 2938 
Q 3034 2613 3034 2169 
Q 3034 1728 2734 1425 
Q 2400 1094 1813 1094 
Q 1563 1094 1331 1150 
z
M 1734 2919 
Q 1409 2919 1197 2706 
Q 988 2497 988 2181 
Q 988 1872 1184 1684 
Q 1397 1472 1756 1472 
Q 2094 1472 2297 1678 
Q 2503 1881 2503 2203 
Q 2503 2497 2297 2700 
Q 2081 2919 1734 2919 
z
M 1753 159 
Q 903 159 903 -366 
Q 903 -875 1800 -875 
Q 2378 -875 2638 -606 
Q 2772 -481 2772 -313 
Q 2772 159 1753 159 
z
" transform="scale(0.015625)"/>
      <path id="IPAexGothic-73" d="M 2234 2547 
Q 1938 2931 1484 2931 
Q 891 2931 891 2475 
Q 891 2153 1531 1944 
L 1741 1875 
Q 2650 1578 2650 894 
Q 2650 434 2272 172 
Q 1972 -31 1497 -31 
Q 766 -31 256 503 
L 603 819 
Q 997 397 1516 397 
Q 2131 397 2131 875 
Q 2131 1238 1453 1478 
L 1234 1553 
Q 378 1853 378 2431 
Q 378 2797 628 3047 
Q 928 3347 1453 3347 
Q 2156 3347 2606 2859 
L 2234 2547 
z
" transform="scale(0.015625)"/>
      <path id="IPAexGothic-5f" d="M 3200 -750 
L 0 -750 
L 0 -431 
L 3200 -431 
L 3200 -750 
z
" transform="scale(0.015625)"/>
      <path id="IPAexGothic-64" d="M 3391 63 
L 2891 63 
L 2891 619 
Q 2441 -31 1753 -31 
Q 1181 -31 788 372 
Q 313 844 313 1663 
Q 313 2466 772 2938 
Q 1169 3341 1753 3341 
Q 2384 3341 2847 2809 
L 2847 4794 
L 3391 4794 
L 3391 63 
z
M 2847 1303 
L 2847 2097 
Q 2847 2413 2456 2706 
Q 2181 2906 1853 2906 
Q 1484 2906 1228 2650 
Q 888 2309 888 1678 
Q 888 1109 1169 750 
Q 1441 409 1847 409 
Q 2322 409 2656 875 
Q 2847 1134 2847 1303 
z
" transform="scale(0.015625)"/>
     </defs>
     <use xlink:href="#IPAexGothic-76"/>
     <use xlink:href="#IPAexGothic-65" x="48.583984"/>
     <use xlink:href="#IPAexGothic-67" x="105.46875"/>
     <use xlink:href="#IPAexGothic-73" x="160.986328"/>
     <use xlink:href="#IPAexGothic-6f" x="207.177734"/>
     <use xlink:href="#IPAexGothic-75" x="267.578125"/>
     <use xlink:href="#IPAexGothic-74" x="327.978516"/>
     <use xlink:href="#IPAexGothic-5f" x="362.597656"/>
     <use xlink:href="#IPAexGothic-75" x="412.597656"/>
     <use xlink:href="#IPAexGothic-6e" x="472.998047"/>
     <use xlink:href="#IPAexGothic-64" x="533.398438"/>
     <use xlink:href="#IPAexGothic-65" x="595.800781"/>
     <use xlink:href="#IPAexGothic-72" x="652.685547"/>
     <use xlink:href="#IPAexGothic-67" x="689.697266"/>
     <use xlink:href="#IPAexGothic-72" x="745.214844"/>
    </g>
   </g>
   <g id="legend_1">
    <g id="patch_23">
     <path d="M 217.628125 95.535363 
L 338.3875 95.535363 
Q 340.3875 95.535363 340.3875 93.535363 
L 340.3875 36.91505 
Q 340.3875 34.91505 338.3875 34.91505 
L 217.628125 34.91505 
Q 215.628125 34.91505 215.628125 36.91505 
L 215.628125 93.535363 
Q 215.628125 95.535363 217.628125 95.535363 
z
" style="fill: #ffffff; opacity: 0.8; stroke: #cccccc; stroke-linejoin: miter"/>
    </g>
    <g id="patch_24">
     <path d="M 219.628125 46.405675 
L 239.628125 46.405675 
L 239.628125 39.405675 
L 219.628125 39.405675 
z
" style="fill: #181c43"/>
    </g>
    <g id="text_12">
     <!-- never -->
     <g transform="translate(247.628125 46.405675)scale(0.1 -0.1)">
      <use xlink:href="#IPAexGothic-6e"/>
      <use xlink:href="#IPAexGothic-65" x="60.400391"/>
      <use xlink:href="#IPAexGothic-76" x="117.285156"/>
      <use xlink:href="#IPAexGothic-65" x="165.869141"/>
      <use xlink:href="#IPAexGothic-72" x="222.753906"/>
     </g>
    </g>
    <g id="patch_25">
     <path d="M 219.628125 60.7963 
L 239.628125 60.7963 
L 239.628125 53.7963 
L 219.628125 53.7963 
z
" style="fill: #3888ba"/>
    </g>
    <g id="text_13">
     <!-- present but limited -->
     <g transform="translate(247.628125 60.7963)scale(0.1 -0.1)">
      <defs>
       <path id="IPAexGothic-70" d="M 1075 2688 
Q 1525 3341 2206 3341 
Q 2769 3341 3172 2938 
Q 3641 2469 3641 1644 
Q 3641 841 3178 372 
Q 2775 -31 2200 -31 
Q 1569 -31 1106 497 
L 1106 -1216 
L 563 -1216 
L 563 3250 
L 1075 3250 
L 1075 2688 
z
M 1106 1950 
L 1106 1291 
Q 1106 897 1516 600 
Q 1791 403 2106 403 
Q 2469 403 2725 659 
Q 3066 997 3066 1631 
Q 3066 2200 2784 2559 
Q 2503 2900 2100 2900 
Q 1656 2900 1338 2484 
Q 1106 2184 1106 1950 
z
" transform="scale(0.015625)"/>
       <path id="IPAexGothic-20" transform="scale(0.015625)"/>
       <path id="IPAexGothic-62" d="M 1125 2731 
Q 1550 3341 2219 3341 
Q 2788 3341 3191 2938 
Q 3659 2469 3659 1644 
Q 3659 838 3191 372 
Q 2788 -31 2206 -31 
Q 1559 -31 1088 516 
L 1009 44 
L 581 44 
L 581 4794 
L 1125 4794 
L 1125 2731 
z
M 1125 1997 
L 1125 1253 
Q 1125 888 1528 600 
Q 1803 403 2119 403 
Q 2488 403 2744 659 
Q 3084 1009 3084 1631 
Q 3084 2194 2803 2553 
Q 2525 2900 2125 2900 
Q 1759 2900 1438 2578 
Q 1125 2266 1125 1997 
z
" transform="scale(0.015625)"/>
       <path id="IPAexGothic-69" d="M 1178 3928 
L 550 3928 
L 550 4569 
L 1178 4569 
L 1178 3928 
z
M 1138 63 
L 588 63 
L 588 3250 
L 1138 3250 
L 1138 63 
z
" transform="scale(0.015625)"/>
       <path id="IPAexGothic-6d" d="M 5022 63 
L 4472 63 
L 4472 2059 
Q 4472 2869 3847 2869 
Q 3550 2869 3303 2594 
Q 3128 2397 3059 2103 
L 3059 63 
L 2509 63 
L 2509 2066 
Q 2509 2869 1919 2869 
Q 1606 2869 1369 2594 
Q 1113 2306 1113 2041 
L 1113 63 
L 563 63 
L 563 3250 
L 1075 3250 
L 1075 2700 
Q 1391 3316 2028 3316 
Q 2725 3316 2956 2647 
Q 3303 3316 3953 3316 
Q 4478 3316 4772 2944 
Q 5022 2638 5022 2072 
L 5022 63 
z
" transform="scale(0.015625)"/>
      </defs>
      <use xlink:href="#IPAexGothic-70"/>
      <use xlink:href="#IPAexGothic-72" x="62.109375"/>
      <use xlink:href="#IPAexGothic-65" x="99.121094"/>
      <use xlink:href="#IPAexGothic-73" x="156.005859"/>
      <use xlink:href="#IPAexGothic-65" x="202.197266"/>
      <use xlink:href="#IPAexGothic-6e" x="259.082031"/>
      <use xlink:href="#IPAexGothic-74" x="319.482422"/>
      <use xlink:href="#IPAexGothic-20" x="354.101562"/>
      <use xlink:href="#IPAexGothic-62" x="381.103516"/>
      <use xlink:href="#IPAexGothic-75" x="443.505859"/>
      <use xlink:href="#IPAexGothic-74" x="503.90625"/>
      <use xlink:href="#IPAexGothic-20" x="538.525391"/>
      <use xlink:href="#IPAexGothic-6c" x="565.527344"/>
      <use xlink:href="#IPAexGothic-69" x="592.529297"/>
      <use xlink:href="#IPAexGothic-6d" x="619.53125"/>
      <use xlink:href="#IPAexGothic-69" x="706.640625"/>
      <use xlink:href="#IPAexGothic-74" x="733.642578"/>
      <use xlink:href="#IPAexGothic-65" x="768.261719"/>
      <use xlink:href="#IPAexGothic-64" x="825.146484"/>
     </g>
    </g>
    <g id="patch_26">
     <path d="M 219.628125 75.186925 
L 239.628125 75.186925 
L 239.628125 68.186925 
L 219.628125 68.186925 
z
" style="fill: #f1eceb"/>
    </g>
    <g id="text_14">
     <!-- important -->
     <g transform="translate(247.628125 75.186925)scale(0.1 -0.1)">
      <use xlink:href="#IPAexGothic-69"/>
      <use xlink:href="#IPAexGothic-6d" x="27.001953"/>
      <use xlink:href="#IPAexGothic-70" x="114.111328"/>
      <use xlink:href="#IPAexGothic-6f" x="176.220703"/>
      <use xlink:href="#IPAexGothic-72" x="236.621094"/>
      <use xlink:href="#IPAexGothic-74" x="273.632812"/>
      <use xlink:href="#IPAexGothic-61" x="308.251953"/>
      <use xlink:href="#IPAexGothic-6e" x="363.232422"/>
      <use xlink:href="#IPAexGothic-74" x="423.632812"/>
     </g>
    </g>
    <g id="patch_27">
     <path d="M 219.628125 89.57755 
L 239.628125 89.57755 
L 239.628125 82.57755 
L 219.628125 82.57755 
z
" style="fill: #808080"/>
    </g>
    <g id="text_15">
     <!-- missing -->
     <g transform="translate(247.628125 89.57755)scale(0.1 -0.1)">
      <use xlink:href="#IPAexGothic-6d"/>
      <use xlink:href="#IPAexGothic-69" x="87.109375"/>
      <use xlink:href="#IPAexGothic-73" x="114.111328"/>
      <use xlink:href="#IPAexGothic-73" x="160.302734"/>
      <use xlink:href="#IPAexGothic-69" x="206.494141"/>
      <use xlink:href="#IPAexGothic-6e" x="233.496094"/>
      <use xlink:href="#IPAexGothic-67" x="293.896484"/>
     </g>
    </g>
   </g>
  </g>
 </g>
 <defs>
  <clipPath id="p3b6271097b">
   <rect x="40.1875" y="29.91505" width="305.2" height="154.526"/>
  </clipPath>
 </defs>
</svg>
